<svg width="48" height="48" viewBox="0 0 48 48" fill="none" xmlns="http://www.w3.org/2000/svg">
<g id="Group">
<g id="Group_2">
<g id="Group_3">
<path id="Vector" d="M48 3.8005V2.52344C48 1.18722 46.9129 0.100098 45.5767 0.100098H2.42334C1.08713 0.100098 0 1.18722 0 2.52344V3.8006C0 4.92475 0.7695 5.87247 1.80947 6.145V39.6478C0.7695 39.9202 0 40.8679 0 41.992V45.4755C0 46.8117 1.08713 47.8988 2.42334 47.8988H11.2448C11.6321 47.8988 13.5 47.6372 13.5 47.2498C13.5 46.8623 11.6322 46.4958 11.2448 46.4958H2.42334C1.86075 46.4958 1.40297 46.0382 1.40297 45.4755V41.992C1.40297 41.4293 1.86075 40.9716 2.42334 40.9716H2.511H45.489H45.5767C46.1393 40.9716 46.597 41.4293 46.597 41.992V45.4755C46.597 46.0382 46.1393 46.4958 45.5767 46.4958H11.2448C10.8574 46.4958 12.75 46.8099 12.75 47.1973C12.75 47.5848 10.8573 47.8988 11.2448 47.8988H45.5767C46.9129 47.8988 48 46.8117 48 45.4755V41.992C48 40.8679 47.2304 39.9201 46.1904 39.6476V6.14491C47.2304 5.87247 48 4.92475 48 3.8005ZM1.40297 3.8005V2.52344C1.40297 1.96075 1.86075 1.50307 2.42334 1.50307H45.5767C46.1393 1.50307 46.597 1.96075 46.597 2.52344V3.8006C46.597 4.36329 46.1393 4.82097 45.5767 4.82097H45.489H32.0154H32.0135H2.511H2.42334C1.86075 4.82088 1.40297 4.36319 1.40297 3.8005ZM26.0163 24.1332C24.7484 24.3364 23.6597 25.0814 22.9942 26.122C22.3287 25.0815 21.2399 24.3364 19.972 24.1332V6.22385H26.0163V24.1332ZM26.7178 25.4799C28.3799 25.4799 29.7323 26.8322 29.7323 28.4944C29.7323 30.1565 28.38 31.5087 26.7178 31.5087C25.0557 31.5087 23.7035 30.1565 23.7035 28.4944C23.7035 26.8322 25.0557 25.4799 26.7178 25.4799ZM12.5248 24.1332V6.22385H18.5691V24.1332C17.3012 24.3364 16.2124 25.0814 15.5469 26.122C14.8815 25.0815 13.7927 24.3364 12.5248 24.1332ZM14.8376 28.4943C14.8376 30.1564 13.4855 31.5086 11.8233 31.5086C10.1611 31.5086 8.80894 30.1564 8.80894 28.4943C8.80894 26.8321 10.1612 25.4798 11.8233 25.4798C13.4854 25.4798 14.8376 26.8322 14.8376 28.4943ZM19.2706 25.4799C20.9327 25.4799 22.2849 26.8322 22.2849 28.4944C22.2849 30.1565 20.9328 31.5087 19.2706 31.5087C17.6085 31.5087 16.2562 30.1565 16.2562 28.4944C16.2562 26.8322 17.6085 25.4799 19.2706 25.4799ZM4.72069 39.5688H3.21244V6.22385H4.72069V39.5688ZM44.7875 39.5688H43.2792V9.74976C43.2792 9.36229 42.9652 12.5769 42.5777 12.5769C42.1902 12.5769 41.8762 12.891 41.8762 13.2783V39.5688H6.12366V6.22385H11.1218V24.1332C9.01838 24.4703 7.40597 26.2972 7.40597 28.4943C7.40597 30.9299 9.38756 32.9116 11.8233 32.9116C13.3865 32.9116 14.7616 32.0946 15.5469 30.866C16.3323 32.0946 17.7074 32.9116 19.2706 32.9116C20.8338 32.9116 22.2089 32.0946 22.9943 30.866C23.7796 32.0946 25.1547 32.9116 26.7178 32.9116C29.1536 32.9116 31.1352 30.93 31.1352 28.4943C31.1352 26.2972 29.5228 24.4703 27.4193 24.1332V6.22385H31.4221L34.8358 24.2855C33.0538 24.8547 31.7594 26.5259 31.7594 28.4943C31.7594 30.9299 33.741 32.9116 36.1767 32.9116C38.6124 32.9116 40.594 30.93 40.594 28.4943C40.594 26.0745 38.638 24.1039 36.2243 24.0781L32.8498 6.22385H41.8763V13.4998C41.8763 13.8872 42.1903 13.4998 42.5778 13.4998C42.9652 13.4998 43.2793 13.8872 43.2793 13.4998V6.22385H44.7876L44.7875 39.5688ZM36.1767 25.4799C37.8388 25.4799 39.1911 26.8322 39.1911 28.4944C39.1911 30.1565 37.8388 31.5087 36.1767 31.5087C34.5146 31.5087 33.1624 30.1565 33.1624 28.4944C33.1624 26.8322 34.5146 25.4799 36.1767 25.4799Z" fill="#fff"/>
</g>
</g>
</g>
</svg>
