<svg width="34" height="34" viewBox="0 0 34 34" fill="none" xmlns="http://www.w3.org/2000/svg">
<g clip-path="url(#clip0_48_5384)">
<path d="M13.4453 18.9768C14.6289 20.3916 16.0536 21.5056 17.6798 22.2938C18.299 22.5872 19.127 22.9353 20.0495 22.995C20.1067 22.9975 20.1614 23 20.2186 23C20.8377 23 21.335 22.7862 21.7403 22.346C21.7428 22.3436 21.7478 22.3386 21.7503 22.3336C21.8945 22.1596 22.0586 22.0029 22.2302 21.8363C22.347 21.7244 22.4664 21.6075 22.5808 21.4882C23.1104 20.9362 23.1104 20.235 22.5758 19.7004L21.0814 18.206C20.8278 17.9424 20.5244 17.8031 20.2061 17.8031C19.8879 17.8031 19.582 17.9424 19.3209 18.2035L18.4308 19.0937C18.3487 19.0464 18.2642 19.0041 18.1846 18.9644C18.0851 18.9146 17.9931 18.8674 17.9111 18.8152C17.1005 18.3005 16.3645 17.6291 15.6608 16.7663C15.3052 16.3162 15.0665 15.9383 14.8999 15.5528C15.1336 15.3415 15.3524 15.1202 15.5638 14.9039C15.6384 14.8268 15.7155 14.7497 15.7926 14.6726C16.0611 14.4041 16.2053 14.0932 16.2053 13.7775C16.2053 13.4617 16.0636 13.1508 15.7926 12.8823L15.0516 12.1413C14.9645 12.0543 14.8825 11.9697 14.7979 11.8827C14.6338 11.7136 14.4623 11.5396 14.2932 11.3829C14.0371 11.1318 13.7362 11 13.4179 11C13.1021 11 12.7988 11.1318 12.5327 11.3854L11.6027 12.3154C11.2646 12.6535 11.0731 13.0638 11.0333 13.5387C10.9861 14.133 11.0955 14.7646 11.379 15.528C11.8141 16.7091 12.4705 17.8056 13.4453 18.9768ZM11.64 13.591C11.6699 13.2603 11.7967 12.9843 12.0354 12.7455L12.9604 11.8206C13.1046 11.6813 13.2638 11.6092 13.4179 11.6092C13.5696 11.6092 13.7238 11.6813 13.8655 11.8255C14.0321 11.9797 14.1887 12.1413 14.3578 12.3129C14.4424 12.3999 14.5294 12.4869 14.6164 12.5765L15.3574 13.3174C15.5116 13.4716 15.5911 13.6283 15.5911 13.7824C15.5911 13.9366 15.5116 14.0932 15.3574 14.2474C15.2803 14.3245 15.2032 14.4041 15.1262 14.4811C14.8949 14.7149 14.6786 14.9362 14.4399 15.1475C14.4349 15.1525 14.4324 15.155 14.4274 15.16C14.2211 15.3663 14.2534 15.5628 14.3031 15.712C14.3056 15.7194 14.3081 15.7244 14.3106 15.7319C14.502 16.1919 14.7681 16.6295 15.1834 17.1517C15.9293 18.0717 16.7151 18.7853 17.5804 19.3349C17.6873 19.4045 17.8017 19.4592 17.9086 19.5139C18.0081 19.5636 18.1001 19.6109 18.1821 19.6631C18.1921 19.668 18.1995 19.673 18.2095 19.678C18.2915 19.7203 18.3711 19.7402 18.4507 19.7402C18.6496 19.7402 18.7789 19.6133 18.8211 19.5711L19.7511 18.6411C19.8953 18.4969 20.052 18.4198 20.2061 18.4198C20.3951 18.4198 20.5493 18.5367 20.6463 18.6411L22.1456 20.138C22.444 20.4364 22.4415 20.7596 22.1382 21.0754C22.0337 21.1873 21.9243 21.2942 21.8075 21.4061C21.6334 21.5752 21.4519 21.7493 21.2878 21.9457C21.0018 22.254 20.6612 22.3983 20.2211 22.3983C20.1788 22.3983 20.134 22.3958 20.0918 22.3933C19.2762 22.3411 18.5178 22.0228 17.9484 21.7518C16.4018 21.0033 15.0441 19.9416 13.9177 18.5939C12.9902 17.4774 12.3661 16.438 11.9533 15.3241C11.6972 14.6403 11.6003 14.0908 11.64 13.591Z" fill="#E27410"/>
</g>
<rect x="0.5" y="0.5" width="33" height="33" rx="4.5" stroke="#E27410"/>
<defs>
<clipPath id="clip0_48_5384">
<rect width="12" height="12" fill="white" transform="translate(11 11)"/>
</clipPath>
</defs>
</svg>
