<svg width="34" height="34" viewBox="0 0 34 34" fill="none" xmlns="http://www.w3.org/2000/svg">
<path d="M29 15.4495H27.713C27.0631 13.5203 25.2407 12.1252 23.0952 12.1252C20.9002 12.1252 19.041 13.5842 18.4323 15.5828C18.0473 15.3283 17.5535 15.1707 16.9997 15.1707C16.4461 15.1707 15.9524 15.3283 15.5673 15.5827C14.9585 13.5841 13.099 12.1253 10.904 12.1253C8.75858 12.1253 6.93624 13.5204 6.28649 15.4495H5V16.4495H6.0626C6.04213 16.6306 6.02929 16.8139 6.02929 17.0003C6.02929 19.6883 8.21608 21.8748 10.904 21.8748C13.592 21.8748 15.779 19.6883 15.779 17.0003C15.779 16.9723 15.7753 16.9452 15.7748 16.9173H15.7783C15.7783 16.5642 16.28 16.1707 16.9998 16.1707C17.7197 16.1707 18.2212 16.5642 18.2212 16.9173H18.2249C18.2244 16.9452 18.2207 16.9723 18.2207 17.0003C18.2207 19.6883 20.4072 21.8748 23.0952 21.8748C25.7832 21.8748 27.9702 19.6883 27.9702 17.0003C27.9702 16.8139 27.9574 16.6306 27.9369 16.4495H29V15.4495ZM10.904 20.8748C8.76757 20.8748 7.02927 19.1365 7.02927 17.0003C7.02927 14.8636 8.76757 13.1253 10.904 13.1253C13.0408 13.1253 14.7791 14.8636 14.7791 17.0003C14.7791 19.1365 13.0408 20.8748 10.904 20.8748ZM23.0953 20.8748C20.959 20.8748 19.2207 19.1365 19.2207 17.0003C19.2207 14.8636 20.959 13.1253 23.0953 13.1253C25.232 13.1253 26.9703 14.8636 26.9703 17.0003C26.9702 19.1365 25.2319 20.8748 23.0953 20.8748Z" fill="#E27410"/>
<rect x="0.5" y="0.5" width="33" height="33" rx="4.5" stroke="#E27410"/>
</svg>
